<?xml version="1.0" encoding="utf-8"?>
<!-- Generator: Adobe Illustrator 16.0.0, SVG Export Plug-In . SVG Version: 6.00 Build 0)  -->
<!DOCTYPE svg PUBLIC "-//W3C//DTD SVG 1.1//EN" "http://www.w3.org/Graphics/SVG/1.1/DTD/svg11.dtd">
<svg version="1.1" id="Layer_1" xmlns="http://www.w3.org/2000/svg" xmlns:xlink="http://www.w3.org/1999/xlink" x="0px" y="0px"
	 width="758px" height="524px" viewBox="49.444 28.141 758 524" enable-background="new 49.444 28.141 758 524"
	 xml:space="preserve">
<path fill="#D8D9DD" d="M447.514,91.116V75.913h19.86v-9.62c0-17.109,14.948-30.937,33.44-30.937
	c18.462,0,33.396,13.835,33.396,30.937v9.62h19.433v15.203H447.514z"/>
<path fill="#D8D9DD" d="M622.76,404.588c-39.193,0-70.97,31.766-70.97,70.954c0,39.196,31.774,70.97,70.97,70.97
	c39.166,0,70.902-31.771,70.902-70.969C693.662,436.353,661.926,404.588,622.76,404.588z M622.745,509.499
	c-18.754,0-33.949-15.196-33.949-33.949c0-18.754,15.195-33.927,33.949-33.927c18.729,0,33.911,15.166,33.911,33.927
	C656.656,494.302,641.476,509.499,622.745,509.499z"/>
<path fill="#D8D9DD" d="M216.48,403.9c-39.167,0-70.94,31.795-70.94,70.97c0,39.195,31.767,70.938,70.94,70.938
	c39.195,0,70.962-31.742,70.962-70.938C287.442,435.695,255.675,403.9,216.48,403.9z M216.636,508.885
	c-18.746,0-33.949-15.181-33.949-33.949c0-18.743,15.203-33.926,33.949-33.926c18.746,0,33.942,15.183,33.942,33.926
	C250.571,493.705,235.382,508.885,216.636,508.885z"/>
<path fill="#D8D9DD" d="M741.851,273.761c21.189,4.126,33.883,13.282,43.448,65.582l15.129,94.401
	c5.449,30.72-11.915,41.924-33.553,41.924H714.89c0-50.901-41.234-92.31-92.13-92.31c-50.899,0-92.182,41.416-92.182,92.31H308.407
	c0-50.901-41.259-92.31-92.159-92.31c-50.924,0-92.183,41.416-92.183,92.31H80.99c-15.166,0-26.99-11.48-26.99-26.302V138.968
	c0-16.915,13.349-30.503,29.71-30.503h479.456h78.341c21.189,0,36.691,10.523,44.354,28.963L741.851,273.761z M555.916,140.103
	v128.941h149.101l-52.299-128.941H555.916L555.916,140.103z M422.542,252.497V173.38h-79.117v79.116h-79.132v79.133h79.132v79.109
	h79.117V331.63h79.116v-79.132L422.542,252.497L422.542,252.497z"/>
</svg>
