<?xml version="1.0" encoding="utf-8"?>
<!-- Generator: Adobe Illustrator 16.0.0, SVG Export Plug-In . SVG Version: 6.00 Build 0)  -->
<!DOCTYPE svg PUBLIC "-//W3C//DTD SVG 1.1//EN" "http://www.w3.org/Graphics/SVG/1.1/DTD/svg11.dtd">
<svg version="1.1" id="Layer_1" xmlns="http://www.w3.org/2000/svg" xmlns:xlink="http://www.w3.org/1999/xlink" x="0px" y="0px"
	 width="22.5px" height="23px" viewBox="0 0 22.5 23" enable-background="new 0 0 22.5 23" xml:space="preserve">
<path fill="#A3A3A3" d="M10.954,2.16C5.475,2.16,1.008,6.625,1,12.114c-0.004,2.709,1.064,5.336,2.934,7.206
	c1.773,1.777,4.131,2.756,6.637,2.756c0.134,0,0.269-0.003,0.404-0.01c5.57-0.229,9.934-4.601,9.934-9.952
	C20.908,6.625,16.443,2.16,10.954,2.16z M10.934,21.107c-0.121,0.006-0.244,0.008-0.363,0.008c-1.984,0-3.864-0.684-5.374-1.94
	c0-0.01,0.003-0.019,0.003-0.028c0-2.521,1.479-4.668,3.693-5.398c0.558,0.286,1.187,0.45,1.854,0.45s1.297-0.164,1.854-0.45
	c2.268,0.745,3.84,2.926,3.853,5.373C14.939,20.29,13.032,21.021,10.934,21.107z M10.748,13.236c-1.725,0-3.126-1.402-3.126-3.125
	c0-1.723,1.401-3.126,3.126-3.126c1.725,0,3.125,1.402,3.125,3.126C13.873,11.834,12.473,13.236,10.748,13.236z M17.359,18.322
	c-0.285-2.297-1.746-4.299-3.818-5.238c0.794-0.746,1.293-1.801,1.293-2.974c0-2.253-1.833-4.086-4.086-4.086
	S6.662,7.857,6.662,10.11c0,1.173,0.5,2.229,1.294,2.975c-2.015,0.924-3.394,2.888-3.663,5.22c-1.49-1.664-2.336-3.894-2.333-6.189
	C1.969,7.156,6.002,3.12,10.954,3.12c4.959,0,8.994,4.035,8.994,8.994C19.948,14.52,18.967,16.707,17.359,18.322z"/>
</svg>
