<?xml version="1.0" encoding="utf-8"?>
<!-- Generator: Adobe Illustrator 16.0.0, SVG Export Plug-In . SVG Version: 6.00 Build 0)  -->
<!DOCTYPE svg PUBLIC "-//W3C//DTD SVG 1.1//EN" "http://www.w3.org/Graphics/SVG/1.1/DTD/svg11.dtd">
<svg version="1.1" id="Layer_1" xmlns="http://www.w3.org/2000/svg" xmlns:xlink="http://www.w3.org/1999/xlink" x="0px" y="0px"
	 width="22.5px" height="23px" viewBox="16.417 0.5 22.5 23" enable-background="new 16.417 0.5 22.5 23" xml:space="preserve">
<path fill="#CCCCCC" d="M27.626,2.16c-5.48,0-9.946,4.465-9.954,9.954c-0.004,2.709,1.065,5.336,2.933,7.207
	c1.774,1.776,4.131,2.755,6.637,2.755c0.134,0,0.269-0.003,0.404-0.009c5.571-0.228,9.934-4.6,9.934-9.953
	C37.58,6.625,33.115,2.16,27.626,2.16z M27.606,21.107c-0.122,0.006-0.244,0.008-0.364,0.008c-1.984,0-3.864-0.684-5.374-1.94
	c0-0.01,0.003-0.019,0.003-0.028c0-2.523,1.479-4.669,3.694-5.4c0.557,0.286,1.186,0.45,1.854,0.45c0.668,0,1.297-0.164,1.854-0.45
	c2.268,0.745,3.841,2.926,3.853,5.373C31.611,20.29,29.704,21.021,27.606,21.107z M27.42,13.236c-1.724,0-3.126-1.402-3.126-3.125
	s1.402-3.126,3.126-3.126s3.125,1.402,3.125,3.126C30.545,11.834,29.144,13.236,27.42,13.236z M34.031,18.322
	c-0.285-2.297-1.746-4.298-3.818-5.238c0.794-0.746,1.293-1.801,1.293-2.974c0-2.253-1.833-4.086-4.086-4.086
	s-4.086,1.833-4.086,4.086c0,1.173,0.5,2.229,1.294,2.975c-2.014,0.924-3.393,2.887-3.663,5.219
	c-1.491-1.664-2.336-3.893-2.333-6.19c0.008-4.959,4.042-8.995,8.994-8.995c4.959,0,8.994,4.035,8.994,8.994
	C36.62,14.52,35.639,16.707,34.031,18.322z"/>
</svg>
