<?xml version="1.0" encoding="utf-8"?>
<!-- Generator: Adobe Illustrator 16.0.0, SVG Export Plug-In . SVG Version: 6.00 Build 0)  -->
<!DOCTYPE svg PUBLIC "-//W3C//DTD SVG 1.1//EN" "http://www.w3.org/Graphics/SVG/1.1/DTD/svg11.dtd">
<svg version="1.1" id="Layer_1" xmlns="http://www.w3.org/2000/svg" xmlns:xlink="http://www.w3.org/1999/xlink" x="0px" y="0px"
	 width="46.092px" height="45.027px" viewBox="0 0 46.092 45.027" enable-background="new 0 0 46.092 45.027" xml:space="preserve">
<path fill="#FFFFFF" d="M6.61,41.364l-2.604-2.602c-0.861-0.864-0.861-2.26,0-3.122L36.703,2.945c0.864-0.863,2.257-0.863,3.122,0
	l2.607,2.603c0.861,0.863,0.861,2.26,0,3.125l-32.7,32.691C8.873,42.229,7.474,42.229,6.61,41.364"/>
<path fill="#FFFFFF" d="M4.009,5.55l2.603-2.605c0.862-0.861,2.26-0.861,3.123,0l32.692,32.697c0.867,0.86,0.867,2.259,0,3.123
	l-2.601,2.604c-0.864,0.86-2.26,0.86-3.124,0L4.009,8.673C3.146,7.808,3.146,6.411,4.009,5.55"/>
</svg>
