<?xml version="1.0" encoding="utf-8"?>
<!-- Generator: Adobe Illustrator 16.0.0, SVG Export Plug-In . SVG Version: 6.00 Build 0)  -->
<!DOCTYPE svg PUBLIC "-//W3C//DTD SVG 1.1//EN" "http://www.w3.org/Graphics/SVG/1.1/DTD/svg11.dtd">
<svg version="1.1" id="Layer_1" xmlns="http://www.w3.org/2000/svg" xmlns:xlink="http://www.w3.org/1999/xlink" x="0px" y="0px"
	 width="841.889px" height="595.281px" viewBox="0 0 841.889 595.281" enable-background="new 0 0 841.889 595.281"
	 xml:space="preserve">
<g>
	<g>
		<path fill="#CCCCCC" d="M434.279,206.205H282.364c-4.763,0-8.572-3.81-8.572-8.571c0-4.763,3.81-8.572,8.572-8.572h151.915
			c4.763,0,8.572,3.81,8.572,8.572C442.851,202.395,439.041,206.205,434.279,206.205z"/>
	</g>
	<g>
		<path fill="#CCCCCC" d="M342.844,242.875h-60.48c-4.763,0-8.572-3.811-8.572-8.572c0-4.763,3.81-8.572,8.572-8.572h60.48
			c4.763,0,8.572,3.81,8.572,8.572C351.416,239.064,347.607,242.875,342.844,242.875z"/>
	</g>
	<g>
		<path fill="#CCCCCC" d="M342.844,273.829h-60.48c-4.763,0-8.572-3.81-8.572-8.572c0-4.762,3.81-8.571,8.572-8.571h60.48
			c4.763,0,8.572,3.81,8.572,8.571C351.416,270.019,347.607,273.829,342.844,273.829z"/>
	</g>
	<g>
		<path fill="#CCCCCC" d="M342.844,306.688h-60.48c-4.763,0-8.572-3.81-8.572-8.572c0-4.762,3.81-8.571,8.572-8.571h60.48
			c4.763,0,8.572,3.81,8.572,8.571C351.416,302.879,347.607,306.688,342.844,306.688z"/>
	</g>
	<g>
		<path fill="#CCCCCC" d="M434.279,242.875h-60.956c-4.763,0-8.572-3.811-8.572-8.572c0-4.763,3.81-8.572,8.572-8.572h60.48
			c4.762,0,8.571,3.81,8.571,8.572C442.374,239.064,439.041,242.875,434.279,242.875z"/>
	</g>
	<g>
		<path fill="#CCCCCC" d="M434.279,273.829h-60.956c-4.763,0-8.572-3.81-8.572-8.572c0-4.762,3.81-8.571,8.572-8.571h60.48
			c4.762,0,8.571,3.81,8.571,8.571C442.851,270.019,439.041,273.829,434.279,273.829z"/>
	</g>
	<g>
		<path fill="#CCCCCC" d="M434.279,306.688h-60.956c-4.763,0-8.572-3.81-8.572-8.572c0-4.762,3.81-8.571,8.572-8.571h60.48
			c4.762,0,8.571,3.81,8.571,8.571C442.374,302.879,439.041,306.688,434.279,306.688z"/>
	</g>
	<g>
		<path fill="#CCCCCC" d="M609.53,365.74H236.17c-7.144,0-12.858-5.714-12.858-12.857V130.485c0-7.143,5.715-12.857,12.858-12.857
			H609.53c7.144,0,12.857,5.715,12.857,12.857v221.921C622.864,359.55,616.673,365.74,609.53,365.74z M249.028,339.549h347.644
			V143.344H249.028V339.549L249.028,339.549z"/>
	</g>
	<g>
		<path fill="#CCCCCC" d="M553.811,228.588H530v-23.812c0-7.143-5.715-12.857-12.858-12.857s-12.858,5.715-12.858,12.857v23.812
			h-23.811c-7.144,0-12.858,5.715-12.858,12.858c0,7.143,5.715,12.857,12.858,12.857h23.811v23.812
			c0,7.144,5.715,12.858,12.858,12.858S530,285.259,530,278.115v-23.812h23.811c7.144,0,12.858-5.715,12.858-12.857
			C566.669,234.302,560.954,228.588,553.811,228.588z"/>
	</g>
</g>
</svg>
