<?xml version="1.0" encoding="utf-8"?>
<!-- Generator: Adobe Illustrator 16.0.0, SVG Export Plug-In . SVG Version: 6.00 Build 0)  -->
<!DOCTYPE svg PUBLIC "-//W3C//DTD SVG 1.1//EN" "http://www.w3.org/Graphics/SVG/1.1/DTD/svg11.dtd">
<svg version="1.1" id="Layer_1" xmlns="http://www.w3.org/2000/svg" xmlns:xlink="http://www.w3.org/1999/xlink" x="0px" y="0px"
	 width="410px" height="259px" viewBox="0 0 410 259" enable-background="new 0 0 410 259" xml:space="preserve">
<g>
	<path fill="#D8D9DD" d="M216.418,94.021H64.502c-4.763,0-8.572-3.811-8.572-8.571c0-4.763,3.81-8.571,8.572-8.571h151.916
		c4.762,0,8.568,3.81,8.568,8.571C224.988,90.21,221.18,94.021,216.418,94.021z"/>
</g>
<g>
	<path fill="#D8D9DD" d="M124.982,130.691h-60.48c-4.762,0-8.571-3.811-8.571-8.573c0-4.763,3.81-8.572,8.571-8.572h60.48
		c4.764,0,8.572,3.811,8.572,8.572S129.746,130.691,124.982,130.691z"/>
</g>
<g>
	<path fill="#D8D9DD" d="M124.982,161.645h-60.48c-4.762,0-8.571-3.809-8.571-8.572c0-4.762,3.81-8.57,8.571-8.57h60.48
		c4.764,0,8.572,3.811,8.572,8.57C133.554,157.836,129.746,161.645,124.982,161.645z"/>
</g>
<g>
	<path fill="#D8D9DD" d="M124.982,194.504h-60.48c-4.762,0-8.571-3.811-8.571-8.57c0-4.762,3.81-8.57,8.571-8.57h60.48
		c4.764,0,8.572,3.811,8.572,8.57C133.554,190.695,129.746,194.504,124.982,194.504z"/>
</g>
<g>
	<path fill="#D8D9DD" d="M216.418,130.691h-60.957c-4.763,0-8.572-3.811-8.572-8.573c0-4.763,3.81-8.572,8.572-8.572h60.478
		c4.766,0,8.572,3.811,8.572,8.572S221.18,130.691,216.418,130.691z"/>
</g>
<g>
	<path fill="#D8D9DD" d="M216.418,161.645h-60.957c-4.763,0-8.572-3.809-8.572-8.572c0-4.762,3.81-8.57,8.572-8.57h60.478
		c4.766,0,8.572,3.811,8.572,8.57C224.988,157.836,221.18,161.645,216.418,161.645z"/>
</g>
<g>
	<path fill="#D8D9DD" d="M216.418,194.504h-60.957c-4.763,0-8.572-3.811-8.572-8.57c0-4.762,3.81-8.57,8.572-8.57h60.478
		c4.766,0,8.572,3.811,8.572,8.57C224.512,190.695,221.18,194.504,216.418,194.504z"/>
</g>
<g>
	<path fill="#D8D9DD" d="M391.668,253.557H18.308c-7.145,0-12.857-5.715-12.857-12.857V18.3c0-7.143,5.715-12.856,12.857-12.856
		h373.36c7.145,0,12.855,5.715,12.855,12.856v221.922C405.002,247.365,398.811,253.557,391.668,253.557z M31.166,227.365h347.645
		V31.16H31.166V227.365L31.166,227.365z"/>
</g>
<g>
	<path fill="#D8D9DD" d="M335.949,116.404h-23.811V92.591c0-7.143-5.715-12.856-12.859-12.856c-7.143,0-12.855,5.715-12.855,12.856
		v23.812h-23.812c-7.143,0-12.855,5.715-12.855,12.857c0,7.143,5.715,12.858,12.855,12.858h23.812v23.812
		c0,7.143,5.715,12.857,12.855,12.857c7.146,0,12.859-5.715,12.859-12.857v-23.812h23.811c7.146,0,12.857-5.715,12.857-12.858
		C348.807,122.118,343.092,116.404,335.949,116.404z"/>
</g>
</svg>
