<?xml version="1.0" encoding="utf-8"?>
<!-- Generator: Adobe Illustrator 16.0.0, SVG Export Plug-In . SVG Version: 6.00 Build 0)  -->
<!DOCTYPE svg PUBLIC "-//W3C//DTD SVG 1.1//EN" "http://www.w3.org/Graphics/SVG/1.1/DTD/svg11.dtd">
<svg version="1.1" id="Layer_1" xmlns="http://www.w3.org/2000/svg" xmlns:xlink="http://www.w3.org/1999/xlink" x="0px" y="0px"
	 width="90px" height="95px" viewBox="0 0 90 95" enable-background="new 0 0 90 95" xml:space="preserve">
<g>
	
		<polyline opacity="0.4" fill="none" stroke="#F6F6F6" stroke-width="10" stroke-linecap="round" stroke-linejoin="round" stroke-miterlimit="10" enable-background="new    " points="
		6.109,76.635 6.109,15.808 84.557,15.808 	"/>
	<path fill="none" stroke="#FFFFFF" stroke-width="5" stroke-miterlimit="10" d="M81.557,79.635H9.109c-3.313,0-6-2.686-6-6V18.808
		c0-3.313,2.687-6,6-6h72.448c3.312,0,6,2.687,6,6v54.827C87.557,76.949,84.87,79.635,81.557,79.635z"/>
	<g>
		<path fill="#FFFFFF" d="M48.175,62.887H42.49c-1.104,0-2-0.896-2-2v-29.33c0-1.104,0.896-2,2-2h5.685c1.104,0,2,0.896,2,2v29.33
			C50.175,61.99,49.279,62.887,48.175,62.887z"/>
		<g>
			<path fill="#FFFFFF" d="M61.997,43.379v5.686c0,1.104-0.896,2-2,2H30.668c-1.104,0-2-0.896-2-2v-5.686c0-1.104,0.896-2,2-2
				h29.329C61.102,41.379,61.997,42.275,61.997,43.379z"/>
		</g>
	</g>
	<path fill="none" stroke="#FFFFFF" stroke-width="5" stroke-miterlimit="10" d="M23.703,19.27v-6.6c0-4.86,3.94-8.8,8.801-8.8
		h25.658c4.859,0,8.8,3.94,8.8,8.8v6.6"/>
	<g>
		<path fill="#672B5C" d="M26.903,22.02h-6.48c-1.216,0-2.2-0.984-2.2-2.2v-1.1c0-1.215,0.984-2.2,2.2-2.2h6.48
			c1.215,0,2.2,0.985,2.2,2.2v1.1C29.104,21.036,28.118,22.02,26.903,22.02z"/>
	</g>
	<g>
		<path fill="#672B5C" d="M70.203,22.02h-6.48c-1.216,0-2.199-0.984-2.199-2.2v-1.1c0-1.215,0.983-2.2,2.199-2.2h6.48
			c1.215,0,2.199,0.985,2.199,2.2v1.1C72.402,21.036,71.418,22.02,70.203,22.02z"/>
	</g>
</g>
</svg>
