<?xml version="1.0" encoding="utf-8"?>
<!-- Generator: Adobe Illustrator 16.0.0, SVG Export Plug-In . SVG Version: 6.00 Build 0)  -->
<!DOCTYPE svg PUBLIC "-//W3C//DTD SVG 1.1//EN" "http://www.w3.org/Graphics/SVG/1.1/DTD/svg11.dtd">
<svg version="1.1" id="Layer_1" xmlns="http://www.w3.org/2000/svg" xmlns:xlink="http://www.w3.org/1999/xlink" x="0px" y="0px"
	 width="90px" height="95px" viewBox="143 138.5 90 95" enable-background="new 143 138.5 90 95" xml:space="preserve">
<path fill="#39456F" d="M226.291,187.311c0,21.62-17.525,39.146-39.146,39.146c-21.619,0-39.146-17.526-39.146-39.146
	s17.527-39.146,39.146-39.146C208.766,148.165,226.291,165.69,226.291,187.311"/>
<path fill="#FFFFFF" d="M217.521,187.311c0,16.776-13.6,30.376-30.375,30.376c-16.776,0-30.376-13.6-30.376-30.376
	c0-16.775,13.6-30.376,30.376-30.376C203.922,156.935,217.521,170.535,217.521,187.311"/>
<line fill="none" stroke="#39456F" stroke-width="6" stroke-miterlimit="10" x1="208.926" y1="209.091" x2="165.366" y2="165.53"/>
<path fill="#FF3D3D" d="M184.725,168.456h4.841c1.195,0,2.164,0.969,2.164,2.163v34.383c0,1.194-0.969,2.162-2.164,2.162h-4.841
	c-1.195,0-2.163-0.968-2.163-2.162v-34.383C182.562,169.425,183.53,168.456,184.725,168.456"/>
<path fill="#FF3D3D" d="M206,184.89v4.842c0,1.194-0.968,2.163-2.163,2.163h-33.382c-1.195,0-2.163-0.969-2.163-2.163v-4.842
	c0-1.194,0.968-2.163,2.163-2.163h33.382C205.032,182.727,206,183.695,206,184.89"/>
</svg>
