<?xml version="1.0" encoding="utf-8"?>
<!-- Generator: Adobe Illustrator 16.0.0, SVG Export Plug-In . SVG Version: 6.00 Build 0)  -->
<!DOCTYPE svg PUBLIC "-//W3C//DTD SVG 1.1//EN" "http://www.w3.org/Graphics/SVG/1.1/DTD/svg11.dtd">
<svg version="1.1" id="Layer_1" xmlns="http://www.w3.org/2000/svg" xmlns:xlink="http://www.w3.org/1999/xlink" x="0px" y="0px"
	 width="37.834px" height="49.614px" viewBox="0 0 37.834 49.614" enable-background="new 0 0 37.834 49.614" xml:space="preserve">
<g>
	<g>
		<path fill="#FFFFFF" d="M8.438,29.814L4.06,25.435c-0.453-0.453-0.453-1.188,0-1.643l20.201-20.2c0.454-0.454,1.189-0.454,1.643,0
			l4.379,4.379c0.453,0.453,0.453,1.188,0,1.642L10.081,29.814C9.628,30.268,8.893,30.268,8.438,29.814z"/>
		<path fill="#FFFFFF" d="M4.06,23.792l4.379-4.379c0.454-0.453,1.189-0.453,1.643,0l20.201,20.201c0.453,0.453,0.453,1.188,0,1.643
			l-4.379,4.379c-0.453,0.453-1.188,0.453-1.643,0L4.06,25.435C3.606,24.982,3.606,24.247,4.06,23.792z"/>
	</g>
</g>
</svg>
