<?xml version="1.0" encoding="utf-8"?>
<!-- Generator: Adobe Illustrator 16.0.0, SVG Export Plug-In . SVG Version: 6.00 Build 0)  -->
<!DOCTYPE svg PUBLIC "-//W3C//DTD SVG 1.1//EN" "http://www.w3.org/Graphics/SVG/1.1/DTD/svg11.dtd">
<svg version="1.1" id="Layer_1" xmlns="http://www.w3.org/2000/svg" xmlns:xlink="http://www.w3.org/1999/xlink" x="0px" y="0px"
	 width="486px" height="487.141px" viewBox="174.444 0 486 487.141" enable-background="new 174.444 0 486 487.141"
	 xml:space="preserve">
<g display="none">
	<rect x="-731.518" display="inline" width="881.016" height="471.463"/>
	<rect x="182.832" y="-171.441" display="inline" width="476.225" height="142.867"/>
	<text transform="matrix(1 0 0 1 497.1416 -92.8633)" display="inline" font-family="'Helvetica'" font-size="11.4294">http://thenounproject.com</text>
	<text transform="matrix(1 0 0 1 216.957 -116.6758)" display="inline" font-family="'Helvetica-Bold'" font-size="29.3249">The Noun Project</text>
	<text transform="matrix(1 0 0 1 222.293 -93.8164)" display="inline" font-family="'Helvetica-Bold'" font-size="19.049">Icon Template</text>
	<text transform="matrix(1 0 0 1 -667.2266 50.0039)" display="inline" font-family="'Helvetica-Bold'" font-size="29.3249">Reminders</text>
	
		<line display="inline" fill="none" stroke="#FFFFFF" stroke-miterlimit="10" x1="220.931" y1="-69.052" x2="268.553" y2="-69.052"/>
	<line display="inline" fill="none" stroke="#FFFFFF" stroke-miterlimit="10" x1="-669.609" y1="78.577" x2="-588.65" y2="78.577"/>
	<g display="inline">
		<g>
			<g>
				<rect x="-630.568" y="149.144" width="41.532" height="41.155"/>
				<path d="M-600.342,201.5h22.606v-22.396h-22.606V201.5z M-575.631,203.581h-26.812v-26.568h26.812V203.581L-575.631,203.581z
					 M-608.752,209.834h39.427V170.77h-39.427V209.834L-608.752,209.834z M-567.22,211.92h-43.637v-43.236h43.637V211.92
					L-567.22,211.92z"/>
				<polygon points="-608.409,210.172 -609.091,209.496 -569.664,170.427 -568.987,171.102 				"/>
			</g>
		</g>
	</g>
	<rect x="-669.609" y="276.21" display="inline" fill="none" width="166.679" height="154.773"/>
	<text transform="matrix(1 0 0 1 -669.6094 286.3555)" display="inline" font-family="'Helvetica-Bold'" font-size="14.2867">Strokes</text>
	<text transform="matrix(1 0 0 1 -669.6094 310.1641)" display="inline" font-family="'Helvetica'" font-size="11.4294">Try to keep strokes at 4px</text>
	<text transform="matrix(1 0 0 1 -669.6094 333.9766)" display="inline" font-family="'Helvetica'" font-size="11.4294">Minimum stroke weight is 2px</text>
	<text transform="matrix(1 0 0 1 -669.6094 355.4062)" display="inline" font-family="'Helvetica'" font-size="11.4294">For thicker strokes use even </text>
	<text transform="matrix(1 0 0 1 -669.6094 369.6914)" display="inline" font-family="'Helvetica'" font-size="11.4294">numbers: 6px, 8px etc.</text>
	<text transform="matrix(1 0 0 1 -669.6094 391.1211)" display="inline" font-family="'Helvetica-Bold'" font-size="11.4294">Remember to expand strokes </text>
	<text transform="matrix(1 0 0 1 -669.6094 405.4102)" display="inline" font-family="'Helvetica-Bold'" font-size="11.4294">before saving as an SVG </text>
	<rect x="-467.214" y="276.21" display="inline" fill="none" width="166.679" height="154.773"/>
	<text transform="matrix(1 0 0 1 -467.2148 286.3555)" display="inline" font-family="'Helvetica-Bold'" font-size="14.2867">Size</text>
	<text transform="matrix(1 0 0 1 -467.2148 310.1641)" display="inline" font-family="'Helvetica'" font-size="11.4294">Cannot be wider or taller than </text>
	<text transform="matrix(1 0 0 1 -467.2148 326.832)" display="inline" font-family="'Helvetica'" font-size="11.4294">100px (artboard size)</text>
	<text transform="matrix(1 0 0 1 -467.2148 350.6445)" display="inline" font-family="'Helvetica'" font-size="11.4294">Scale your icon to fill as much of </text>
	<text transform="matrix(1 0 0 1 -467.2148 364.9297)" display="inline" font-family="'Helvetica'" font-size="11.4294">the artboard as possible</text>
	<rect x="-264.818" y="276.21" display="inline" fill="none" width="166.679" height="154.773"/>
	<text transform="matrix(1 0 0 1 -264.8203 286.3555)" display="inline" font-family="'Helvetica-Bold'" font-size="14.2867">Ungroup</text>
	<text transform="matrix(1 0 0 1 -264.8203 310.1641)" display="inline" font-family="'Helvetica'" font-size="11.4294">If your design has more than one </text>
	<text transform="matrix(1 0 0 1 -264.8203 324.4531)" display="inline" font-family="'Helvetica'" font-size="11.4294">shape, make sure to ungroup</text>
	<rect x="-55.279" y="276.21" display="inline" fill="none" width="166.678" height="154.773"/>
	<text transform="matrix(1 0 0 1 -55.2812 286.3555)" display="inline" font-family="'Helvetica-Bold'" font-size="14.2867">Save as</text>
	<text transform="matrix(1 0 0 1 -55.2812 310.1641)" display="inline" font-family="'Helvetica'" font-size="11.4294">Save as .SVG and make sure “Use </text>
	<text transform="matrix(1 0 0 1 -55.2812 324.4531)" display="inline" font-family="'Helvetica'" font-size="11.4294">Artboards” is checked</text>
	<text transform="matrix(1.0074 0 0 1 -415.0234 145.6914)" display="inline" font-family="'Helvetica'" font-size="12.2537">100px</text>
	<text transform="matrix(1.0074 0 0 1 -12.4141 185.7266)" display="inline" font-family="'Helvetica-Bold'" font-size="24.5075">.SVG</text>
	<rect x="-419.658" y="165.798" display="inline" width="48.865" height="48.503"/>
	<rect x="-419.481" y="151.277" display="inline" width="2.485" height="11.13"/>
	<rect x="-373.459" y="151.277" display="inline" width="2.49" height="11.13"/>
	<rect x="-421.972" y="153.997" display="inline" width="53.494" height="2.724"/>
	<g display="inline">
		<rect x="-216.267" y="161.174" width="49.075" height="48.365"/>
		<rect x="-182.95" y="136.71" width="15.753" height="15.529"/>
	</g>
	<rect x="-667.227" y="107.15" display="inline" stroke="#FFFFFF" stroke-miterlimit="10" width="142.867" height="142.867"/>
	<rect x="-467.214" y="107.15" display="inline" stroke="#FFFFFF" stroke-miterlimit="10" width="142.867" height="142.867"/>
	<rect x="-262.437" y="107.15" display="inline" stroke="#FFFFFF" stroke-miterlimit="10" width="142.867" height="142.867"/>
	<rect x="-52.898" y="107.15" display="inline" stroke="#FFFFFF" stroke-miterlimit="10" width="142.867" height="142.867"/>
</g>
<g>
	<g>
		<g>
			<path fill="#D8D9DD" d="M416.184,4C284.679,4,178.07,110.607,178.07,242.112c0,131.505,106.608,238.112,238.112,238.112
				c131.505,0,238.11-106.605,238.11-238.112C654.294,110.607,547.688,4,416.184,4z M416.184,432.602
				c-105.202,0-190.489-85.28-190.489-190.49c0-105.202,85.287-190.489,190.489-190.489c105.207,0,190.487,85.287,190.487,190.489
				C606.672,347.32,521.391,432.602,416.184,432.602z"/>
		</g>
	</g>
	<path fill="#D8D9DD" d="M435.231,242.112c0,15.777-10.658,28.573-23.812,28.573l0,0c-13.151,0-23.811-12.796-23.811-28.573V99.245
		c0-15.777,10.657-28.573,23.811-28.573l0,0c13.153,0,23.812,12.796,23.812,28.573V242.112z"/>
	<path fill="#D8D9DD" d="M402.354,271.448c-13.392-8.349-18.259-24.722-10.873-36.579l0,0c7.392-11.858,24.233-14.701,37.627-6.357
		l121.256,75.552c13.392,8.35,18.259,24.727,10.872,36.585l0,0c-7.386,11.853-24.234,14.699-37.626,6.355L402.354,271.448z"/>
</g>
</svg>
