<?xml version="1.0" encoding="utf-8"?>
<!-- Generator: Adobe Illustrator 16.0.0, SVG Export Plug-In . SVG Version: 6.00 Build 0)  -->
<!DOCTYPE svg PUBLIC "-//W3C//DTD SVG 1.1//EN" "http://www.w3.org/Graphics/SVG/1.1/DTD/svg11.dtd">
<svg version="1.1" id="Layer_1" xmlns="http://www.w3.org/2000/svg" xmlns:xlink="http://www.w3.org/1999/xlink" x="0px" y="0px"
	 width="95.334px" height="97.333px" viewBox="0 0 95.334 97.333" enable-background="new 0 0 95.334 97.333" xml:space="preserve">
<g>
	<g>
		
			<path fill="none" stroke="#FFFFFF" stroke-width="4.5" stroke-linecap="round" stroke-linejoin="round" stroke-miterlimit="10" d="
			M74.647,40.73c3.976-6.432,3.19-14.972-2.389-20.551l-2.359-2.359c-6.515-6.515-17.077-6.515-23.592,0L27.516,36.613"/>
	</g>
	<path opacity="0.4" fill="none" stroke="#F6F6F6" stroke-width="8" stroke-linecap="round" stroke-miterlimit="10" d="
		M40.528,29.602l8.771-8.771c4.891-4.89,12.818-4.89,17.709,0l1.562,1.562"/>
	<path fill="#672B5C" d="M69.864,46.789c-11.136,0-20.164,9.028-20.164,20.165s9.028,20.164,20.164,20.164
		c11.137,0,20.164-9.027,20.164-20.164S81.001,46.789,69.864,46.789z M80.541,59.567L62.479,77.629
		c-0.454,0.455-1.05,0.682-1.646,0.682c-0.595,0-1.19-0.227-1.645-0.682c-0.91-0.908-0.91-2.381,0-3.291l18.062-18.062
		c0.908-0.908,2.381-0.908,3.29,0C81.45,57.186,81.45,58.659,80.541,59.567z"/>
	<g>
		<path fill="#FFFFFF" stroke="#FFFFFF" stroke-width="4.5" stroke-miterlimit="10" d="M43.204,66.954
			c0-4.26,1.009-8.285,2.792-11.859l-18.48-18.481L13.36,50.768c-6.515,6.514-6.515,17.076,0,23.592l2.359,2.359
			c6.515,6.514,17.077,6.514,23.592,0l4.43-4.43C43.39,70.565,43.204,68.78,43.204,66.954z"/>
	</g>
</g>
</svg>
