<?xml version="1.0" encoding="utf-8"?>
<!-- Generator: Adobe Illustrator 16.0.0, SVG Export Plug-In . SVG Version: 6.00 Build 0)  -->
<!DOCTYPE svg PUBLIC "-//W3C//DTD SVG 1.1//EN" "http://www.w3.org/Graphics/SVG/1.1/DTD/svg11.dtd">
<svg version="1.1" id="Layer_1" xmlns="http://www.w3.org/2000/svg" xmlns:xlink="http://www.w3.org/1999/xlink" x="0px" y="0px"
	 width="66.734px" height="62.458px" viewBox="0 0 66.734 62.458" enable-background="new 0 0 66.734 62.458" xml:space="preserve">
<g>
	<g>
		<defs>
			<rect id="SVGID_1_" x="5.845" y="3.936" width="55.544" height="55.543"/>
		</defs>
		<clipPath id="SVGID_2_">
			<use xlink:href="#SVGID_1_"  overflow="visible"/>
		</clipPath>
		<path clip-path="url(#SVGID_2_)" fill="#FFFFFF" d="M29.358,8.109c5.167,0,10.025,2.012,13.677,5.666
			c3.653,3.651,5.665,8.509,5.665,13.675c0,5.166-2.012,10.023-5.665,13.677c-3.652,3.653-8.511,5.667-13.677,5.667
			c-5.165,0-10.023-2.014-13.675-5.667c-7.543-7.543-7.543-19.812,0-27.352C19.337,10.121,24.195,8.109,29.358,8.109 M29.358,3.936
			c-6.018,0-12.034,2.296-16.626,6.888c-9.183,9.182-9.183,24.07,0,33.253c4.591,4.591,10.608,6.887,16.626,6.887
			c6.02,0,12.036-2.296,16.628-6.887c9.184-9.184,9.184-24.071,0-33.253C41.395,6.232,35.378,3.936,29.358,3.936"/>
	</g>
	<g>
		<defs>
			<rect id="SVGID_3_" x="5.845" y="3.936" width="55.544" height="55.543"/>
		</defs>
		<clipPath id="SVGID_4_">
			<use xlink:href="#SVGID_3_"  overflow="visible"/>
		</clipPath>
		<path clip-path="url(#SVGID_4_)" fill="#FFFFFF" d="M54.763,58.755L41.042,45.035l5.902-5.901l13.721,13.721
			c0.967,0.966,0.967,2.531,0,3.498l-2.403,2.402C57.295,59.72,55.727,59.72,54.763,58.755"/>
	</g>
</g>
</svg>
